<svg width="197" height="34" viewBox="0 0 197 34" fill="none" xmlns="http://www.w3.org/2000/svg">
<path d="M0 16.8404C0 14.8964 0.348911 12.9596 1.04813 11.03C1.74675 9.10089 2.77218 7.36927 4.12424 5.8347C5.4759 4.30092 7.12432 3.06271 9.06891 2.12067C11.0129 1.17923 13.216 0.70771 15.6769 0.70771C18.6235 0.70771 21.1457 1.36155 23.2419 2.66743C25.3382 3.9741 26.9175 5.67527 27.9814 7.77152L23.9712 10.4603C23.5154 9.48842 22.9686 8.66799 22.3305 7.99942C21.6926 7.33146 20.9932 6.79943 20.2341 6.40434C19.4744 6.00985 18.6848 5.72861 17.8643 5.56122C17.0441 5.39463 16.2537 5.31063 15.4946 5.31063C13.7928 5.31063 12.3046 5.65238 11.0286 6.33607C9.7524 7.01957 8.68158 7.92399 7.81577 9.04755C6.94977 10.1719 6.29613 11.433 5.85606 12.83C5.41519 14.2279 5.19526 15.6255 5.19526 17.0228C5.19526 18.6027 5.45301 20.1066 5.97011 21.5343C6.48621 22.9626 7.20752 24.2231 8.13463 25.3168C9.06115 26.4105 10.1626 27.2843 11.4386 27.9373C12.7147 28.591 14.1119 28.9172 15.6314 28.9172C16.4211 28.9172 17.2336 28.8189 18.0693 28.6208C18.9047 28.4236 19.71 28.1047 20.4849 27.6639C21.2595 27.2238 21.9731 26.6691 22.6267 26.0003C23.2797 25.3325 23.8187 24.5272 24.2445 23.5852L28.4828 26.0003C27.9659 27.2158 27.2366 28.2868 26.2953 29.2134C25.3531 30.1405 24.29 30.9223 23.1052 31.5602C21.9203 32.1983 20.6672 32.6848 19.3454 33.0185C18.0238 33.3525 16.7251 33.5199 15.449 33.5199C13.1705 33.5199 11.0891 33.0343 9.20565 32.0616C7.32157 31.0895 5.69663 29.8214 4.32945 28.2562C2.96226 26.6918 1.89841 24.9146 1.13929 22.9242C0.379563 20.9348 0 18.9068 0 16.8404Z" fill="white"/>
<path d="M46.7347 1.16258H42.2683L29.4165 33.52H34.2392H34.4621L42.2842 13.3038L44.6966 7.07199L52.3236 27.4733L54.5827 33.52H59.4949L46.7347 1.16258Z" fill="white"/>
<path d="M54.706 33.52H54.5826L52.3235 27.4733L54.706 33.52Z" fill="#116A00"/>
<path d="M50.0445 33.52H39.1592L44.6964 19.2132L50.0445 33.52Z" fill="#090C9B"/>
<path d="M63.5271 33.5199V1.16346H68.6312V29.0081H85.9942V33.5199H63.5271Z" fill="white"/>
<path d="M90.1414 1.16359H95.2455V33.52H90.1414V1.16359Z" fill="white"/>
<path d="M122.725 24.2231C122.725 23.5551 122.611 22.9172 122.383 22.309C122.155 21.7017 121.851 21.1699 121.472 20.7141C121.091 20.2583 120.629 19.8939 120.082 19.6204C119.535 19.3469 118.942 19.2102 118.304 19.2102H107.64V29.0993H117.985C118.653 29.0993 119.276 28.9705 119.854 28.712C120.431 28.4542 120.932 28.1045 121.358 27.6639C121.783 27.2238 122.117 26.7069 122.36 26.1144C122.603 25.5218 122.725 24.8917 122.725 24.2231ZM107.64 5.58391V15.1086H117.028C117.666 15.1086 118.251 14.9876 118.783 14.744C119.314 14.5014 119.785 14.1743 120.196 13.7643C120.606 13.3541 120.925 12.8607 121.152 12.2833C121.38 11.7065 121.494 11.0684 121.494 10.3692C121.494 8.97211 121.099 7.82487 120.31 6.92841C119.519 6.03274 118.517 5.58391 117.302 5.58391H107.64ZM127.966 25.1803C127.966 26.4868 127.699 27.6567 127.168 28.6893C126.636 29.7225 125.922 30.5961 125.026 31.3096C124.13 32.0238 123.074 32.5707 121.859 32.9503C120.644 33.3304 119.353 33.5199 117.985 33.5199H102.536V1.16351H119.216C120.339 1.16351 121.358 1.40713 122.269 1.89278C123.181 2.37902 123.955 3.00917 124.593 3.78383C125.232 4.55868 125.725 5.44021 126.074 6.42723C126.423 7.41485 126.599 8.40944 126.599 9.41219C126.599 10.9923 126.195 12.4734 125.391 13.8555C124.585 15.2382 123.438 16.2636 121.95 16.9316C123.803 17.4783 125.269 18.4739 126.348 19.9165C127.426 21.36 127.966 23.1145 127.966 25.1803Z" fill="white"/>
<path d="M185.334 29.236C186.275 29.236 187.164 29.0537 188 28.6893C188.835 28.3247 189.564 27.8233 190.187 27.1854C190.81 26.5473 191.304 25.811 191.668 24.9751C192.033 24.1399 192.215 23.251 192.215 22.3092C192.215 21.3677 192.033 20.4862 191.668 19.666C191.304 18.8455 190.81 18.1242 190.187 17.5012C189.564 16.8788 188.835 16.3846 188 16.0202C187.164 15.6556 186.275 15.4732 185.334 15.4732C184.391 15.4732 183.503 15.6556 182.668 16.0202C181.832 16.3846 181.103 16.8788 180.48 17.5012C179.857 18.1242 179.364 18.8455 178.999 19.666C178.635 20.4862 178.452 21.3677 178.452 22.3092C178.452 23.251 178.635 24.1399 178.999 24.9751C179.364 25.811 179.857 26.5473 180.48 27.1854C181.103 27.8233 181.832 28.3247 182.668 28.6893C183.503 29.0537 184.391 29.236 185.334 29.236ZM197 22.3092C197 23.8587 196.704 25.3168 196.111 26.684C195.519 28.0512 194.699 29.2438 193.65 30.2615C192.602 31.2798 191.364 32.0771 189.936 32.6539C188.508 33.2307 186.974 33.5199 185.334 33.5199C183.541 33.5199 181.916 33.1931 180.458 32.5401C178.999 31.887 177.753 30.9452 176.721 29.7145C175.687 28.4841 174.89 26.9802 174.328 25.203C173.766 23.4256 173.485 21.4133 173.485 19.1646C173.485 16.0658 173.781 13.3541 174.373 11.03C174.966 8.7058 175.793 6.76181 176.857 5.19678C177.92 3.63235 179.211 2.45525 180.731 1.66488C182.25 0.875298 183.951 0.480011 185.835 0.480011C187.9 0.480011 189.792 0.951328 191.509 1.89277C193.225 2.83481 194.615 4.17134 195.679 5.90316L192.716 9.00197C192.017 7.72594 191.053 6.71623 189.822 5.97143C188.592 5.22724 187.232 4.85484 185.744 4.85484C183.465 4.85484 181.65 5.81977 180.298 7.74883C178.946 9.67849 178.239 12.39 178.179 15.8833C178.847 14.5163 179.849 13.4381 181.187 12.6477C182.523 11.8579 184.058 11.4629 185.79 11.4629C187.369 11.4629 188.843 11.7441 190.21 12.306C191.577 12.8685 192.762 13.6353 193.765 14.6074C194.767 15.5801 195.557 16.7264 196.134 18.0482C196.711 19.3696 197 20.7903 197 22.3092Z" fill="#090C9B"/>
<path d="M164.424 21.2172C165.366 20.9137 166.232 20.4481 167.022 19.8255C167.812 19.2029 168.479 18.4679 169.028 17.615C169.575 16.7649 169.999 15.8388 170.302 14.8369C170.606 13.8325 170.76 12.786 170.76 11.6927C170.76 10.3846 170.509 9.10282 170.007 7.83934C169.504 6.58103 168.814 5.45627 167.932 4.46745C167.051 3.48123 165.996 2.68329 164.767 2.07643C163.595 1.49842 162.324 1.19489 160.948 1.16623C160.877 1.16344 160.804 1.16344 160.733 1.16344H155.08H149.961H146.652V1.25241L149.207 5.48234L149.29 5.62048L149.364 5.74408H161.14C161.552 5.81832 161.956 5.95326 162.35 6.15469C162.972 6.47394 163.519 6.90546 163.99 7.45221C164.461 7.99896 164.843 8.63727 165.131 9.36714C165.418 10.097 165.565 10.8713 165.565 11.6927C165.565 12.5113 165.442 13.2858 165.198 14.0156C164.955 14.7453 164.62 15.3916 164.197 15.9513C163.77 16.5138 163.263 16.9558 162.669 17.2751C162.078 17.5941 161.416 17.7538 160.686 17.7538H156.618L162.789 27.9741L166.248 33.5199H172.034L164.424 21.2172Z" fill="white"/>
<path d="M160.068 33.52H133.298V1.16258H140.397L143.142 5.67674H138.401V14.8822H148.739L151.314 19.1197H138.401V29.0098H155.49V29.0735H157.365L160.068 33.52Z" fill="white"/>
</svg>
